<?xml version="1.0" encoding="UTF-8" standalone="no"?>
<svg
   width="1024pt"
   height="1024pt"
   viewBox="0 0 1024 1024"
   version="1.1"
   id="svg4"
   sodipodi:docname="logo.svg"
   inkscape:version="1.4.2 (f4327f4, 2025-05-13)"
   xmlns:inkscape="http://www.inkscape.org/namespaces/inkscape"
   xmlns:sodipodi="http://sodipodi.sourceforge.net/DTD/sodipodi-0.dtd"
   xmlns="http://www.w3.org/2000/svg"
   xmlns:svg="http://www.w3.org/2000/svg">
  <defs
     id="defs4" />
  <sodipodi:namedview
     id="namedview4"
     pagecolor="#ffffff"
     bordercolor="#000000"
     borderopacity="0.25"
     inkscape:showpageshadow="false"
     inkscape:pageopacity="0.0"
     inkscape:pagecheckerboard="false"
     inkscape:deskcolor="#d1d1d1"
     inkscape:document-units="pt"
     inkscape:zoom="0.85473633"
     inkscape:cx="683.25164"
     inkscape:cy="683.83662"
     inkscape:window-width="2560"
     inkscape:window-height="1369"
     inkscape:window-x="2558"
     inkscape:window-y="1432"
     inkscape:window-maximized="1"
     inkscape:current-layer="svg4"
     borderlayer="true"
     labelstyle="default"
     showborder="false" />
  <g
     id="#000000ff"
     transform="matrix(-1,0,0,1,1025.2989,0)">
    <path
       fill="#000000"
       opacity="1"
       d="m 251.55,144.75 c 3.14,-0.4 6.29,-0.79 9.47,-0.75 165.66,0 331.31,0 496.97,0 34.97,-1.16 70.36,13.12 94.27,38.76 19.96,20.63 32.31,48.5 33.74,77.2 0,160.34 0,320.68 0,481.02 -0.31,13.16 1.01,26.46 -1.69,39.45 -4.22,21.72 -14.34,42.34 -29.41,58.59 -19.91,21.76 -47.39,36.89 -76.77,40.64 -11.31,1.43 -22.72,0.94 -34.08,1.02 -160.7,-0.01 -321.39,0 -482.09,0 -18.11,-0.13 -36.22,-4.19 -52.45,-12.31 -35.66,-17.33 -61.81,-52.42 -68.58,-91.44 -1.76,-9.19 -1.69,-18.6 -1.67,-27.92 -0.01,-158.68 -0.04,-317.35 0.01,-476.03 -0.24,-17.64 2.1,-35.55 8.97,-51.91 10.45,-25.53 29.4,-47.78 53.7,-61.04 15.39,-8.1 32.3,-13.47 49.61,-15.28 m -11.34,56.45 c -8.33,9.14 -11.24,21.77 -12.2,33.78 -0.04,8.69 -0.34,17.41 1.04,26.02 6.74,50.15 27.21,97.3 51.46,141.29 4.32,-8.5 8.61,-17.05 12.6,-25.71 -11.42,-19.37 -22.32,-39.16 -30.87,-60 -8.59,-21.23 -14.54,-43.66 -16.22,-66.54 0,-9.18 -0.74,-18.69 2.6,-27.44 2.32,-5.83 7.86,-10.11 14.19,-10.48 15.65,-1.14 30.86,4.52 44.75,11.17 19.23,10.18 36.44,25.43 46.19,45.13 4.1,8.76 7.1,18.06 8.49,27.65 1.02,4.08 0.56,8.36 1.66,12.43 -6.04,10.38 -15.82,17.8 -23.3,27.04 -13.72,15.87 -25.48,33.4 -35.33,51.9 -11.33,21.81 -20.97,44.49 -29.23,67.63 -10.61,32.02 -18.38,65.98 -14.11,99.85 2.24,19.98 9.42,39.19 19.55,56.5 5.09,9.23 8.75,20.03 6.45,30.63 -3.98,19.07 -16.34,35.44 -18.85,54.93 -0.17,6.35 -0.61,12.83 0.94,19.06 4.77,24.21 25.5,44.62 50.11,48 -1.56,-5.82 -2.03,-11.87 -2.34,-17.86 -1.44,-4.75 -6.77,-6.48 -10.28,-9.43 -10.44,-8.03 -20.58,-18.01 -24.22,-31.07 -2.74,-10.88 2.28,-21.39 6.21,-31.26 7.61,-17.79 14.08,-36.08 18.84,-54.84 0.83,-4.2 3.2,-8.22 2.78,-12.56 -3.37,-7.21 -10.38,-11.74 -14.94,-18.11 -16.79,-21.2 -22.14,-49.49 -20.13,-75.94 1.45,-11.04 3.31,-22.61 9.8,-31.95 3.05,-4.71 8.78,-6.88 14.2,-6.98 8.41,0.59 15.98,5.28 21.67,11.28 7.31,8.33 12.84,18.18 16.25,28.73 5.71,16.32 7.49,33.91 5.56,51.07 -2.39,18.95 -9.51,36.87 -17.36,54.14 -7.73,17.51 -15.91,34.88 -21.73,53.15 -1.66,5.61 -2.85,11.46 -2.38,17.35 3.79,1.52 7.92,1.28 11.91,1.69 8.96,0.94 17.98,0.42 26.97,0.56 7.67,0.09 15.43,-1.49 23.04,0.02 5.56,1.62 10.89,5.62 12.78,11.27 1.88,9.2 -3.2,17.9 -8.86,24.72 -7.06,8.79 -17.76,14.22 -28.97,15.14 -0.4,5.26 2.19,10.5 6.86,13.07 11.12,6.59 24.53,7.27 37.14,6.79 26.7,-1.62 51.96,-13.78 71.96,-31.19 9.2,-7.39 16.88,-16.4 24.46,-25.38 3.87,-4.22 8.35,-8.19 13.8,-10.2 3.33,-0.62 7.5,-1.21 10.12,1.48 2.28,2.22 1.8,5.64 1.64,8.52 -1.54,6.22 -7.03,10.06 -11.22,14.46 -12.76,12.59 -24.72,26.16 -39.46,36.53 -17.3,12.69 -37.5,22.66 -59.25,23.78 -6.66,0.29 -13.32,-0.1 -19.98,-0.02 -15.16,-0.05 -29.56,-5.17 -44.12,-8.71 -1.62,-0.4 -3.29,-0.32 -4.92,-0.39 3.51,10.14 11.09,18.51 20.26,23.91 10.85,6.32 23.37,8.93 35.74,10.18 6.36,0.11 12.73,0 19.1,0.01 14.18,-0.97 28.24,-4.08 41.5,-9.26 19.84,-7.68 37.84,-19.19 55.88,-30.31 17.18,-10.66 35.84,-18.85 55.18,-24.7 19.93,-6.42 40.69,-9.87 60.5,-16.7 49.68,-16.48 95.05,-46.02 130,-84.99 10.81,-12.09 19.31,-26 27.03,-40.2 1.47,3.31 2.57,6.78 3.71,10.22 9.73,32.65 14.54,66.44 20.31,99.93 5.07,27.98 9.31,56.1 14.42,84.07 2.13,11.4 3,22.98 2.42,34.57 3.18,-4.63 4.3,-10.3 5.55,-15.67 3.28,-16.81 5.07,-33.85 6.42,-50.89 -0.21,-8.71 1.29,-17.34 1.03,-26.05 0.21,-45.27 -3.92,-90.42 -11.24,-135.07 -6.45,-36.65 -14.1,-73.27 -26.47,-108.44 -3.64,-9.49 -6.91,-19.27 -12.31,-27.94 0.33,-11.33 6.43,-21.25 11.53,-31.01 5.52,-10.88 9.6,-22.43 13.01,-34.13 8.84,-29.96 13.99,-61.18 12.68,-92.46 -0.33,-19.84 -2.16,-39.89 -8.35,-58.86 -5.29,-15.64 -12.83,-31.53 -26.31,-41.73 -8.73,-6.63 -19.86,-8.85 -30.58,-9.36 -30.48,-0.28 -60.64,10.08 -85.4,27.7 -14.91,10.44 -27.89,23.32 -40.33,36.52 -18.29,20.32 -35.58,41.69 -50.05,64.93 -1.87,2.48 -4.34,4.5 -7.19,5.73 -17.11,7.84 -31.93,19.75 -45.75,32.35 -9.9,9.81 -20.08,19.4 -28.94,30.19 -22.12,27.1 -40.88,56.82 -57.53,87.54 -1.69,2.81 -2.63,6.07 -4.8,8.58 0.14,-3.57 0.99,-7.06 1.04,-10.63 1.86,-21.02 7.77,-41.67 17.24,-60.53 3.75,-6.93 7.88,-13.64 11.87,-20.43 16.16,-27.34 35.35,-52.85 56.56,-76.46 18.08,-20.51 37.67,-39.77 59.36,-56.47 -7.46,-0.69 -14.56,2.2 -21.47,4.56 -23.24,8.28 -44.81,20.78 -64.49,35.57 -12.95,9.86 -25.29,20.67 -35.91,33.06 -11.08,12.5 -20.71,26.21 -29.95,40.1 -12.5,19.31 -24.33,39.11 -34.04,59.99 -8.29,18.12 -15.56,36.72 -21.83,55.63 -0.3,0.39 -0.89,1.17 -1.19,1.56 0.42,-39.11 7.57,-78.58 24.03,-114.25 16.07,-32.51 36.35,-63.26 62.1,-88.94 15.32,-14.29 31.74,-27.53 49.84,-38.15 2.62,-1.6 5.5,-2.87 7.67,-5.11 -8.17,-0.3 -16.38,-0.23 -24.41,1.42 -21.26,4.04 -41.57,12.53 -59.85,24.05 -2.05,1.25 -3.93,2.81 -6.18,3.7 -11.31,-20.35 -28.46,-36.96 -47.29,-50.4 -22.48,-15.12 -46.76,-28.31 -73.21,-34.89 -10.41,-2.49 -21.02,-5.06 -31.8,-4.34 -9.36,0.4 -18.71,4.43 -24.86,11.6 m 68.93,322.42 c -2.21,12.65 0.26,25.84 5.74,37.38 0.75,1.14 0.87,2.99 2.43,3.42 0.13,-9.51 3.46,-19.15 0.53,-28.53 -1.48,-4.76 -3.82,-10.22 -8.7,-12.27 z"
       id="path1" />
    <path
       fill="#000000"
       opacity="1"
       d="m 735.05,219.21 c 10.21,-0.77 21.47,-0.73 30,5.79 10.94,8.49 16.3,22.01 19.93,34.96 6.56,25.46 6.92,52.17 3.89,78.17 -2.63,19.67 -7.5,39.15 -15.55,57.33 -5.54,12.28 -12.68,24.08 -22.49,33.42 -4.08,3.86 -9.04,7.57 -14.91,7.53 -6.79,0.11 -12.61,-3.81 -18.46,-6.69 -9.9,-5.05 -19.78,-10.14 -29.74,-15.05 2.78,-11.31 9.64,-21.56 18.91,-28.6 -8.18,-0.07 -16.44,-0.61 -24.54,0.71 -7.81,0.66 -15.45,2.45 -23.19,3.58 4.53,-13.56 11.37,-26.39 20.3,-37.52 -6.24,-1.62 -13.11,-2.06 -19.58,-1.05 -10.5,0.57 -19.93,6.97 -30.59,6.26 -3.68,0.14 -7.61,-1.68 -8.76,-5.39 -0.73,-4.23 -0.23,-8.59 0.85,-12.72 2.81,-11.39 8.06,-21.98 13.41,-32.36 7.79,-14.96 17.11,-29.13 27.98,-42.04 11.3,-13.14 23.98,-25.42 39.12,-34.07 10.32,-5.94 21.61,-10.42 33.42,-12.26 z"
       id="path2" />
    <path
       fill="#000000"
       opacity="1"
       d="M 477.62,506.73 C 492.63,495.35 511.21,488.86 530,488 c 15.89,-0.42 32.15,1.16 46.97,7.23 7.38,3.2 15.43,7.65 18.18,15.76 1.71,3.52 -0.04,7.34 -0.6,10.93 -4.44,19.23 -11.37,38.34 -23.43,54.17 -14.43,18.51 -37.01,29.6 -60.02,32.66 -14.05,1.22 -28.17,0.28 -42.15,-1.14 -2.16,-0.41 -4.43,-0.88 -6.53,-0.03 -17.24,6.14 -31.92,17.45 -45.91,28.95 -8.97,7.49 -17.9,15.05 -26.21,23.27 -0.05,-0.29 -0.14,-0.89 -0.19,-1.19 8.59,-20.2 19.73,-39.15 29.86,-58.59 8.97,-16.79 17.53,-33.8 26.23,-50.73 3.61,-7.23 7.93,-14.08 12.31,-20.86 5.41,-7.98 11.17,-16.02 19.11,-21.7 m 24.97,30.98 c -9.77,4.7 -14.52,15.99 -14.48,26.37 0.55,4.24 1.29,9.31 5.37,11.64 5.19,2.52 10.98,-0.94 14.29,-4.97 6.47,-8.23 9.38,-19.16 7.97,-29.52 -0.44,-2.2 -1.68,-4.09 -3.56,-5.31 -3.3,-0.11 -6.68,0.06 -9.59,1.79 z"
       id="path3" />
    <path
       fill="#000000"
       opacity="1"
       d="m 710.95,526.09 c 1.55,-1.48 3.86,-1.31 5.81,-0.98 5.6,2.57 7.95,8.85 8.9,14.54 1.75,14.82 -1.91,29.71 -7.46,43.39 -6.47,16.29 -16.88,30.7 -28.78,43.45 -23.6,25.99 -52.64,46.42 -82.97,63.8 -26.18,14.85 -53.68,27.45 -82.13,37.26 13.84,-15.54 30.12,-28.69 44.49,-43.72 2.21,-2.29 4.69,-4.92 4.3,-8.37 -1.51,-1.43 -3.16,-2.75 -5.16,-3.41 -9.95,-3.55 -20.66,-3.28 -31.07,-2.94 -23.65,2.64 -46.79,9.47 -68.45,19.26 0.37,-1.12 1.26,-1.88 2.12,-2.62 9.2,-8.98 19.31,-17.04 29.97,-24.23 18.68,-12.41 40.8,-17.86 62.47,-22.43 18.63,-3.89 36.68,-10.97 52.57,-21.53 11.25,-7.51 21.75,-16.16 31.26,-25.77 21.81,-21.48 43.02,-43.56 64.13,-65.7 z"
       id="path4" />
  </g>
</svg>
